<?xml version="1.0" encoding="UTF-8" standalone="no"?>
<!-- Created with Inkscape (http://www.inkscape.org/) -->

<svg
   width="24in"
   height="18in"
   viewBox="0 0 609.60001 457.2"
   version="1.1"
   id="svg838"
   xmlns="http://www.w3.org/2000/svg"
   xmlns:svg="http://www.w3.org/2000/svg">
  <defs
     id="defs835" />
  <g
     id="layer1">
    <path
       d="m 75.104704,7.57766 0.0423,0.33867 0.127009,0.33866 0.211686,0.29634 0.254019,0.254 0.338695,0.16933 0.338685,0.0847 h 0.338695 l 0.338695,-0.0847 0.338686,-0.16933 0.254018,-0.254 0.211686,-0.29634 0.12701,-0.33866 0.0423,-0.33867 -0.0423,-0.33867 -0.12701,-0.33866 -0.211686,-0.29634 -0.254018,-0.254 -0.338686,-0.16933 -0.338695,-0.0847 h -0.338695 l -0.338685,0.0847 -0.338695,0.16933 -0.254019,0.254 -0.211686,0.29634 -0.127009,0.33866 z"
       style="vector-effect:non-scaling-stroke;fill:none;stroke:#ff0000;stroke-width:0.264583;stroke-linecap:round;stroke-linejoin:round;stroke-miterlimit:10;stroke-dasharray:none;stroke-opacity:1;-inkscape-stroke:hairline"
       id="path18" />
    <path
       d="m 75.104704,69.596 0.0423,0.33867 0.127009,0.33866 0.211686,0.29634 0.254019,0.254 0.338695,0.16933 0.338685,0.0847 h 0.338695 l 0.338695,-0.0847 0.338686,-0.16933 0.254018,-0.254 0.211686,-0.29634 0.12701,-0.33866 0.0423,-0.33867 -0.0423,-0.33867 -0.12701,-0.33866 -0.211686,-0.29634 -0.254018,-0.254 -0.338686,-0.16933 -0.338695,-0.0847 h -0.338695 l -0.338685,0.0847 -0.338695,0.16933 -0.254019,0.254 -0.211686,0.29634 -0.127009,0.33866 z"
       style="vector-effect:non-scaling-stroke;fill:none;stroke:#ff0000;stroke-width:0.264583;stroke-linecap:round;stroke-linejoin:round;stroke-miterlimit:10;stroke-dasharray:none;stroke-opacity:1;-inkscape-stroke:hairline"
       id="path26" />
    <path
       d="m 41.108501,69.596 0.0423,0.33867 0.127009,0.33866 0.211686,0.29634 0.254019,0.254 0.338695,0.16933 0.338685,0.0847 h 0.338695 l 0.338695,-0.0847 0.338685,-0.16933 0.254019,-0.254 0.211686,-0.29634 0.127009,-0.33866 0.0423,-0.33867 -0.0423,-0.33867 -0.127009,-0.33866 -0.211686,-0.29634 -0.254019,-0.254 L 43.098285,68.199 42.75959,68.1143 h -0.338695 l -0.338685,0.0847 -0.338695,0.16933 -0.254019,0.254 -0.211686,0.29634 -0.127009,0.33866 z"
       style="vector-effect:non-scaling-stroke;fill:none;stroke:#ff0000;stroke-width:0.264583;stroke-linecap:round;stroke-linejoin:round;stroke-miterlimit:10;stroke-dasharray:none;stroke-opacity:1;-inkscape-stroke:hairline"
       id="path42" />
    <path
       d="m 41.108501,7.57766 0.0423,0.33867 0.127009,0.33866 0.211686,0.29634 0.254019,0.254 0.338695,0.16933 0.338685,0.0847 h 0.338695 l 0.338695,-0.0847 0.338685,-0.16933 0.254019,-0.254 0.211686,-0.29634 0.127009,-0.33866 0.0423,-0.33867 -0.0423,-0.33867 L 43.902675,6.90033 43.690989,6.60399 43.43697,6.34999 43.098285,6.18066 42.75959,6.09596 h -0.338695 l -0.338685,0.0847 -0.338695,0.16933 -0.254019,0.254 -0.211686,0.29634 -0.127009,0.33866 z"
       style="vector-effect:non-scaling-stroke;fill:none;stroke:#ff0000;stroke-width:0.264583;stroke-linecap:round;stroke-linejoin:round;stroke-miterlimit:10;stroke-dasharray:none;stroke-opacity:1;-inkscape-stroke:hairline"
       id="path54" />
    <path
       id="path98"
       style="vector-effect:non-scaling-stroke;fill:none;stroke:#ff0000;stroke-width:0.264583;stroke-linecap:round;stroke-linejoin:round;stroke-miterlimit:10;stroke-dasharray:none;stroke-opacity:1;-inkscape-stroke:hairline"
       d="M 7.5357005,74.63367 H 111.64108 M 2.5399899,69.596 l 0.042303,0.635 0.1270094,0.67733 0.2116857,0.59267 0.296352,0.59267 0.3386952,0.55033 0.4657045,0.46567 0.4656946,0.46566 0.5503808,0.33867 0.592704,0.29633 0.592714,0.21167 0.6773802,0.127 0.6350471,0.0423 M 2.5399899,7.57766 V 69.596 M 7.5357005,2.58233 6.9006534,2.62463 6.2232732,2.75163 5.6305592,2.9633 5.0378452,3.25963 4.4874744,3.5983 4.0217698,4.06397 3.5560753,4.52963 3.2173801,5.07997 2.9210281,5.67263 2.7093424,6.2653 2.582333,6.94263 2.54003,7.57763 M 111.64108,2.54 H 7.5357005 m 109.1010895,5.03766 -0.0423,-0.635 -0.12701,-0.67733 -0.21168,-0.59267 -0.29636,-0.59267 -0.33869,-0.55033 -0.4657,-0.46567 -0.4657,-0.46566 -0.55038,-0.33867 -0.5927,-0.29633 -0.59272,-0.21167 -0.67738,-0.127 -0.63505,-0.0423 M 116.6368,69.596 V 7.57766 m -4.99571,67.01368 0.63505,-0.0423 0.67738,-0.127 0.59272,-0.21167 0.59271,-0.29633 0.55037,-0.33867 0.46571,-0.46567 0.46569,-0.46566 0.33869,-0.55034 0.29636,-0.59266 0.21168,-0.59267 0.12701,-0.67733 0.0423,-0.635" />
  </g>
</svg>
