<?xml version="1.0" encoding="UTF-8" standalone="no"?>
<!-- Created with Inkscape (http://www.inkscape.org/) -->

<svg
   width="200mm"
   height="280mm"
   viewBox="0 0 200 280"
   version="1.1"
   id="svg5"
   xml:space="preserve"
   xmlns="http://www.w3.org/2000/svg"
   xmlns:svg="http://www.w3.org/2000/svg"
   xmlns:inkstitch="http://inkstitch.org/namespace"><metadata
     id="metadata1661"><inkstitch:min_stitch_len_mm>0.1</inkstitch:min_stitch_len_mm><inkstitch:collapse_len_mm>3</inkstitch:collapse_len_mm><inkstitch:inkstitch_svg_version>2</inkstitch:inkstitch_svg_version></metadata><defs
     id="defs2" /><g
     id="layer1"><path
       id="path17292"
       style="color:#000000;fill:#ff0000;stroke-linejoin:round;-inkscape-stroke:none;paint-order:fill markers stroke"
       d="M 17.439762 205.99983 L 17.439762 210.0001 L 29.470553 210.0001 L 29.470553 229.99991 A 4.0004 4.0004 0 0 0 32.331877 233.83379 L 79.999768 247.98435 L 79.999768 274.99975 L 87.999797 274.99975 L 87.999797 245.00003 A 4.0004 4.0004 0 0 0 85.138472 241.16616 L 37.470581 227.0156 L 37.470581 210.0001 L 49.502405 210.0001 L 49.502405 205.99983 L 17.439762 205.99983 z "
       inkstitch:angle="30" /><path
       id="path17292-6-4"
       style="color:#000000;fill:#ff0000;stroke-width:0.999997;-inkscape-stroke:none;paint-order:fill markers stroke"
       d="M 58.521493 189.99977 L 58.521493 194.00004 L 82.163977 194.00004 L 82.163977 229.99991 A 4.0004 4.0004 0 0 0 83.222827 232.71293 L 95.999825 246.56273 L 95.999825 274.99975 L 103.99985 274.99975 L 103.99985 245.00003 A 4.0004 4.0004 0 0 0 102.93945 242.28702 L 90.164006 228.43774 L 90.164006 194.00004 L 113.80649 194.00004 L 113.80649 189.99977 L 58.521493 189.99977 z "
       inkstitch:angle="30" /><path
       id="path17292-6-4-0"
       style="color:#000000;fill:#ff0000;stroke-width:0.999997;-inkscape-stroke:none;paint-order:fill markers stroke"
       d="M 122.89844 216.37387 L 122.89844 220.37415 L 149.69319 220.37415 L 149.69319 227.66001 L 114.52169 241.65812 A 4.0004 4.0004 0 0 0 111.99988 245.37314 L 111.99988 275.37286 L 119.99991 275.37286 L 119.99991 248.0877 L 155.17192 234.08959 A 4.0004 4.0004 0 0 0 157.69322 230.37302 L 157.69322 220.37415 L 184.48848 220.37415 L 184.48848 216.37387 L 122.89844 216.37387 z "
       inkstitch:angle="30" /><g
       id="g17631"
       transform="translate(0, 26.3739)"><path
         d="m 198.59674,179.61822 -1.24195,1.83279 -3.76204,-2.56831 0.13263,4.19612 h -2.41156 l 0.0724,-4.07555 -3.67763,2.4598 -1.2299,-1.8569 4.14789,-2.44774 -4.12378,-2.47185 1.20579,-1.85691 3.67763,2.49597 -0.0724,-4.0876 h 2.39951 l -0.0724,4.0876 3.71381,-2.48391 1.24195,1.85691 -4.172,2.44773 z"
         style="font-weight:bold;font-size:24.6944px;line-height:0px;font-family:Tahoma;-inkscape-font-specification:&quot;Tahoma Bold&quot;;text-align:center;text-anchor:middle;fill:#000000;stroke:none;stroke-width:10;paint-order:fill markers stroke"
         id="path17602"
         inkstitch:angle="30" /><path
         d="m 176.69974,190.32556 q -2.06188,0 -3.6294,-0.39791 -1.55546,-0.3979 -2.89387,-0.98874 v -4.26846 h 0.40996 q 1.35048,1.14549 2.97828,1.76044 1.62781,0.61495 3.15915,0.61495 0.38585,0 1.01286,-0.0844 0.63906,-0.0844 1.02491,-0.26527 0.47025,-0.20498 0.79582,-0.56672 0.32556,-0.37379 0.32556,-0.97668 0,-0.67524 -0.53055,-1.09726 -0.53054,-0.42203 -1.26607,-0.61495 -0.91639,-0.24116 -1.96542,-0.4582 -1.03697,-0.21704 -1.94131,-0.53054 -2.086,-0.73553 -2.99034,-1.97748 -0.90433,-1.24196 -0.90433,-3.11092 0,-2.52008 2.13423,-4.07554 2.13423,-1.56751 5.32955,-1.56751 1.60369,0 3.18327,0.32556 1.59163,0.32556 2.84564,0.88022 v 4.09965 h -0.39791 q -1.0008,-0.8561 -2.44773,-1.44693 -1.43488,-0.59084 -2.95417,-0.59084 -0.59083,0 -1.06109,0.0844 -0.47025,0.0844 -0.98874,0.32556 -0.42202,0.19292 -0.73552,0.57877 -0.30145,0.3738 -0.30145,0.84405 0,0.6873 0.48231,1.09726 0.49437,0.39791 1.89308,0.72347 0.90434,0.20498 1.73633,0.39791 0.84404,0.19292 1.79661,0.53054 1.86896,0.67524 2.7733,1.82073 0.91639,1.13344 0.91639,3.0024 0,2.67683 -2.11012,4.30464 -2.09806,1.6278 -5.67923,1.6278 z"
         style="font-weight:bold;font-size:24.6944px;line-height:0px;font-family:Tahoma;-inkscape-font-specification:&quot;Tahoma Bold&quot;;text-align:center;text-anchor:middle;fill:#000000;stroke:none;stroke-width:10;paint-order:fill markers stroke"
         id="path17600"
         inkstitch:angle="30" /><path
         d="m 161.06077,190.32556 q -2.06189,0 -3.62941,-0.39791 -1.55545,-0.3979 -2.89387,-0.98874 v -4.26846 h 0.40997 q 1.35047,1.14549 2.97828,1.76044 1.6278,0.61495 3.15914,0.61495 0.38585,0 1.01286,-0.0844 0.63906,-0.0844 1.02491,-0.26527 0.47026,-0.20498 0.79582,-0.56672 0.32556,-0.37379 0.32556,-0.97668 0,-0.67524 -0.53054,-1.09726 -0.53055,-0.42203 -1.26608,-0.61495 -0.91639,-0.24116 -1.96542,-0.4582 -1.03697,-0.21704 -1.94131,-0.53054 -2.086,-0.73553 -2.99033,-1.97748 -0.90434,-1.24196 -0.90434,-3.11092 0,-2.52008 2.13423,-4.07554 2.13424,-1.56751 5.32956,-1.56751 1.60369,0 3.18326,0.32556 1.59163,0.32556 2.84564,0.88022 v 4.09965 h -0.39791 q -1.00079,-0.8561 -2.44773,-1.44693 -1.43488,-0.59084 -2.95417,-0.59084 -0.59083,0 -1.06108,0.0844 -0.47026,0.0844 -0.98874,0.32556 -0.42203,0.19292 -0.73553,0.57877 -0.30145,0.3738 -0.30145,0.84405 0,0.6873 0.48232,1.09726 0.49437,0.39791 1.89307,0.72347 0.90434,0.20498 1.73633,0.39791 0.84405,0.19292 1.79661,0.53054 1.86896,0.67524 2.7733,1.82073 0.91639,1.13344 0.91639,3.0024 0,2.67683 -2.11011,4.30464 -2.09806,1.6278 -5.67923,1.6278 z"
         style="font-weight:bold;font-size:24.6944px;line-height:0px;font-family:Tahoma;-inkscape-font-specification:&quot;Tahoma Bold&quot;;text-align:center;text-anchor:middle;fill:#000000;stroke:none;stroke-width:10;paint-order:fill markers stroke"
         id="path17598"
         inkstitch:angle="30" /><path
         d="m 145.42177,190.32556 q -2.06188,0 -3.6294,-0.39791 -1.55546,-0.3979 -2.89387,-0.98874 v -4.26846 h 0.40996 q 1.35048,1.14549 2.97828,1.76044 1.62781,0.61495 3.15915,0.61495 0.38585,0 1.01286,-0.0844 0.63906,-0.0844 1.02491,-0.26527 0.47025,-0.20498 0.79582,-0.56672 0.32556,-0.37379 0.32556,-0.97668 0,-0.67524 -0.53055,-1.09726 -0.53054,-0.42203 -1.26607,-0.61495 -0.91639,-0.24116 -1.96542,-0.4582 -1.03697,-0.21704 -1.94131,-0.53054 -2.086,-0.73553 -2.99034,-1.97748 -0.90433,-1.24196 -0.90433,-3.11092 0,-2.52008 2.13423,-4.07554 2.13423,-1.56751 5.32955,-1.56751 1.60369,0 3.18327,0.32556 1.59163,0.32556 2.84564,0.88022 v 4.09965 h -0.39791 q -1.0008,-0.8561 -2.44773,-1.44693 -1.43488,-0.59084 -2.95417,-0.59084 -0.59083,0 -1.06109,0.0844 -0.47025,0.0844 -0.98874,0.32556 -0.42202,0.19292 -0.73552,0.57877 -0.30145,0.3738 -0.30145,0.84405 0,0.6873 0.48231,1.09726 0.49437,0.39791 1.89308,0.72347 0.90434,0.20498 1.73633,0.39791 0.84404,0.19292 1.79661,0.53054 1.86896,0.67524 2.7733,1.82073 0.91639,1.13344 0.91639,3.0024 0,2.67683 -2.11012,4.30464 -2.09806,1.6278 -5.67923,1.6278 z"
         style="font-weight:bold;font-size:24.6944px;line-height:0px;font-family:Tahoma;-inkscape-font-specification:&quot;Tahoma Bold&quot;;text-align:center;text-anchor:middle;fill:#000000;stroke:none;stroke-width:10;paint-order:fill markers stroke"
         id="path17596"
         inkstitch:angle="30" /><path
         d="m 128.20322,190 v -14.52966 h -5.30543 v -3.42442 h 15.12049 v 3.42442 h -5.30543 V 190 Z"
         style="font-weight:bold;font-size:24.6944px;line-height:0px;font-family:Tahoma;-inkscape-font-specification:&quot;Tahoma Bold&quot;;text-align:center;text-anchor:middle;fill:#000000;stroke:none;stroke-width:10;paint-order:fill markers stroke"
         id="path17594"
         inkstitch:angle="30" /></g><g
       id="g17624"><path
         d="m 113.80619,190 h -4.4855 v -11.90106 l -3.26767,7.68083 h -3.07474 l -3.26767,-7.68083 V 190 h -4.24435 v -17.95408 h 5.19692 l 3.97908,8.86249 3.96702,-8.86249 h 5.19691 z"
         style="font-weight:bold;font-size:24.6944px;line-height:0px;font-family:Tahoma;-inkscape-font-specification:&quot;Tahoma Bold&quot;;text-align:center;text-anchor:middle;fill:#000000;stroke:none;stroke-width:10;paint-order:fill markers stroke"
         id="path17592"
         inkstitch:angle="30" /><path
         d="m 84.481594,190.37379 q -3.617344,0 -5.57071,-1.74838 -1.941307,-1.74838 -1.941307,-5.11251 v -11.46698 h 4.509622 v 11.2017 q 0,1.86897 0.699353,2.78536 0.711411,0.91639 2.303042,0.91639 1.555458,0 2.278927,-0.88022 0.735526,-0.88022 0.735526,-2.82153 v -11.2017 h 4.509622 v 11.45492 q 0,3.3159 -1.905134,5.10045 -1.893077,1.7725 -5.618941,1.7725 z"
         style="font-weight:bold;font-size:24.6944px;line-height:0px;font-family:Tahoma;-inkscape-font-specification:&quot;Tahoma Bold&quot;;text-align:center;text-anchor:middle;fill:#000000;stroke:none;stroke-width:10;paint-order:fill markers stroke"
         id="path17590"
         inkstitch:angle="30" /><path
         d="m 74.55801,181.04105 q 0,2.50802 -1.097261,4.49756 -1.097261,1.97748 -2.773297,3.03857 -1.398706,0.90433 -3.050626,1.16961 Q 65.996963,190 64.14006,190 h -5.618941 v -17.95408 h 5.57071 q 1.893076,0 3.544997,0.24115 1.65192,0.24116 3.098857,1.16961 1.772499,1.13344 2.797413,3.06269 1.024914,1.91719 1.024914,4.52168 z m -4.6302,-0.0362 q 0,-1.7725 -0.614948,-3.02651 -0.602891,-1.26607 -1.868961,-1.97748 -0.916394,-0.50643 -1.929251,-0.55466 -1.000798,-0.0482 -2.399504,-0.0482 h -0.08441 v 11.23788 h 0.08441 q 1.519284,0 2.556256,-0.0482 1.04903,-0.0603 1.989539,-0.65112 1.109319,-0.69936 1.688094,-1.92925 0.578775,-1.2299 0.578775,-3.0024 z"
         style="font-weight:bold;font-size:24.6944px;line-height:0px;font-family:Tahoma;-inkscape-font-specification:&quot;Tahoma Bold&quot;;text-align:center;text-anchor:middle;fill:#000000;stroke:none;stroke-width:10;paint-order:fill markers stroke"
         id="path17588"
         inkstitch:angle="30" /></g><g
       id="g17619"
       transform="translate(0.00031, 16)"><path
         d="m 32.452129,190 6.06508,-17.95408 h 4.919588 L 49.501876,190 h -4.642258 l -1.121376,-3.66558 H 38.095185 L 36.973809,190 Z m 10.297372,-6.92118 -1.832787,-5.92039 -1.832788,5.92039 z"
         style="font-weight:bold;font-size:24.6944px;line-height:0px;font-family:Tahoma;-inkscape-font-specification:&quot;Tahoma Bold&quot;;text-align:center;text-anchor:middle;fill:#000000;stroke:none;stroke-width:10;paint-order:fill markers stroke"
         id="path17586"
         inkstitch:angle="30" /><path
         d="m 31.801006,184.50164 q 0,1.33841 -0.506428,2.35127 -0.506428,1.01286 -1.362533,1.67604 -1.012856,0.79581 -2.230695,1.13343 Q 26.495569,190 24.626608,190 h -7.186457 v -17.95408 h 6.34241 q 1.977481,0 2.990337,0.15675 1.024914,0.14469 1.917193,0.627 0.964625,0.51849 1.434879,1.38665 0.482313,0.86817 0.482313,2.0016 0,1.3143 -0.66318,2.33922 -0.651122,1.02491 -1.808672,1.50722 v 0.0965 q 1.663978,0.34968 2.664777,1.43488 1.000798,1.07315 1.000798,2.90594 z m -5.775692,-7.37938 q 0,-0.43409 -0.229099,-0.89228 -0.21704,-0.4582 -0.687295,-0.66318 -0.446139,-0.19293 -1.061087,-0.20498 -0.602891,-0.0241 -1.808672,-0.0241 h -0.313503 v 3.79821 h 0.566717 q 1.15755,0 1.615747,-0.0241 0.470254,-0.0241 0.964625,-0.25321 0.542601,-0.25321 0.747584,-0.69935 0.204983,-0.44614 0.204983,-1.03697 z m 1.133434,7.29497 q 0,-0.83199 -0.337618,-1.30224 -0.337619,-0.47026 -1.012857,-0.71141 -0.409965,-0.15675 -1.133434,-0.16881 -0.711411,-0.0241 -1.917192,-0.0241 h -0.831989 v 4.49757 h 0.241156 q 1.76044,0 2.435678,-0.0241 0.675237,-0.0241 1.374591,-0.32556 0.614948,-0.26527 0.892278,-0.7717 0.289387,-0.51849 0.289387,-1.16961 z"
         style="font-weight:bold;font-size:24.6944px;line-height:0px;font-family:Tahoma;-inkscape-font-specification:&quot;Tahoma Bold&quot;;text-align:center;text-anchor:middle;fill:#000000;stroke:none;stroke-width:10;paint-order:fill markers stroke"
         id="path17584"
         inkstitch:angle="30" /><path
         d="m 13.521362,179.61822 -1.241955,1.83279 -3.7620371,-2.56831 0.1326359,4.19612 H 6.2384432 l 0.072347,-4.07555 -3.6776329,2.4598 -1.2298969,-1.8569 4.1478876,-2.44774 -4.123772,-2.47185 1.2057813,-1.85691 3.6776329,2.49597 -0.072347,-4.0876 H 8.637948 l -0.072347,4.0876 3.713806,-2.48391 1.241955,1.85691 -4.1720031,2.44773 z"
         style="font-weight:bold;font-size:24.6944px;line-height:0px;font-family:Tahoma;-inkscape-font-specification:&quot;Tahoma Bold&quot;;text-align:center;text-anchor:middle;fill:#000000;stroke:none;stroke-width:10;paint-order:fill markers stroke"
         id="path17582"
         inkstitch:angle="30" /></g><path
       style="fill:#000000;stroke-width:1"
       d="m 14.319717,147.79588 c -0.0996,-1.2733 -0.275531,-5.58933 -0.390851,-9.59117 -0.181811,-6.30893 -0.285231,-7.52213 -0.778053,-9.12732 -0.312601,-1.01818 -0.568362,-2.32202 -0.568362,-2.89744 0,-0.92853 0.175181,-1.21656 1.557615,-2.56093 1.634776,-1.58978 3.16194,-2.48649 5.586158,-3.28006 0.800363,-0.26201 1.923126,-0.68571 2.495018,-0.94155 l 1.039804,-0.46518 0.0432,-3.52682 c 0.0516,-4.21181 0.468741,-9.81635 1.036573,-13.92576 0.836883,-6.056432 1.204904,-10.607206 1.191744,-14.736559 -0.0132,-4.142644 -0.445752,-8.123166 -0.931973,-8.576468 C 24.175488,77.770312 18.088519,76.340337 16.022072,76.151337 11.564468,75.743635 8.4471878,74.969363 6.2324607,73.719799 4.3461647,72.655535 3.3908516,71.576202 2.5522689,69.561826 1.5685158,67.198748 1.1205044,64.65606 1.2468948,62.153132 c 0.0869,-1.721326 0.2067506,-2.103957 1.0125732,-3.23333 1.6623353,-2.329801 3.9838828,-5.089269 4.7115251,-5.600291 0.3941712,-0.276824 1.2977541,-0.757855 2.0079564,-1.068955 0.7102023,-0.311101 1.7703955,-0.998488 2.3559675,-1.527524 l 1.064694,-0.961885 4.126343,0.16459 c 2.269487,0.09052 5.376497,0.393574 6.904472,0.673446 1.527975,0.279869 2.881669,0.410277 3.00821,0.289794 0.12654,-0.120485 0.335491,-0.734658 0.464341,-1.364829 0.293801,-1.436911 0.821263,-15.487447 0.606772,-16.16324 -0.16708,-0.52642 0.533142,-1.519034 1.071574,-1.519034 0.1685,0 0.640232,0.348476 1.048283,0.77439 0.712432,0.743617 0.735682,0.851392 0.585182,2.711988 -0.0862,1.065679 -0.271801,4.676044 -0.412422,8.023034 -0.14063,3.346989 -0.336981,6.695675 -0.436341,7.441525 l -0.180641,1.356092 5.390778,1.79314 c 4.046823,1.346101 6.508801,2.360249 9.875331,4.067886 3.508912,1.779855 4.811186,2.591338 5.985859,3.729962 1.530715,1.483714 2.492188,3.25347 3.191281,5.874078 0.283751,1.063654 0.263931,1.531825 -0.136781,3.231541 -0.843202,3.576711 -3.386931,6.652391 -6.073739,7.343953 -1.006753,0.259121 -3.765112,0.351521 -10.493894,0.351521 H 27.79607 v 8.202107 c 0,7.517584 -0.0631,8.676857 -0.755722,13.890659 -1.162814,8.7529 -1.646996,16.0999 -1.096374,16.63647 0.172361,0.16796 1.048513,0.0432 2.513558,-0.35793 1.236924,-0.33867 3.439591,-0.75578 4.894806,-0.92692 4.250063,-0.49981 11.871478,-1.60271 12.303159,-1.78039 0.218281,-0.0899 3.07579,-0.26461 6.35002,-0.38836 3.274231,-0.12374 6.684832,-0.29294 7.579125,-0.37601 1.313664,-0.12202 2.228437,0.009 4.762515,0.68172 5.938139,1.57654 6.687271,1.86202 8.393627,3.1986 0.892153,0.69881 2.693668,2.09903 4.003353,3.1116 1.309694,1.01255 2.966019,2.44277 3.680711,3.17827 l 1.299455,1.33724 -0.836433,0.78134 c -0.632282,0.59064 -0.836423,1.00854 -0.836423,1.71216 0,0.51195 -0.19394,1.68457 -0.430971,2.60584 -0.374221,1.45443 -0.391641,2.14723 -0.132291,5.26072 0.164271,1.97214 0.298671,5.86334 0.298671,8.64712 v 5.06141 l -0.768452,0.54718 c -0.422641,0.30095 -1.081594,0.54719 -1.464325,0.54719 -0.687742,0 -0.693602,-0.0162 -0.501601,-1.38907 0.342891,-2.45176 0.2441,-11.28441 -0.156831,-14.02174 -0.300151,-2.04931 -0.315081,-2.91492 -0.0728,-4.21792 0.16769,-0.9017 0.251981,-1.69236 0.187321,-1.75702 -0.0647,-0.0647 -0.812613,0.52371 -1.662106,1.3075 -0.849503,0.78379 -2.014006,1.735 -2.587798,2.11381 -1.688015,1.11444 -6.36543,4.03746 -7.208713,4.5049 l -0.777773,0.43113 0.348831,1.95012 c 0.191861,1.07258 0.355102,2.63856 0.362752,3.47999 0.0156,1.71911 -0.548742,3.36495 -1.153894,3.36495 -0.220591,0 -0.544792,-0.26789 -0.720462,-0.59532 -0.175661,-0.32742 -0.529822,-2.24505 -0.787023,-4.2614 -0.257201,-2.01636 -0.511722,-3.71017 -0.565592,-3.76405 -0.0539,-0.0539 -0.718612,0.13788 -1.477194,0.42612 -0.758583,0.28824 -2.358838,0.61283 -3.556112,0.72132 l -2.176877,0.19726 -0.0805,3.70419 c -0.0712,3.27593 0.183871,6.20334 0.645252,7.40568 0.12643,0.32946 -0.13012,0.39955 -1.462485,0.39955 h -1.615815 v -5.55627 -5.55627 l -2.182817,0.002 c -1.200554,0.001 -3.19486,0.12175 -4.431784,0.26809 -9.26108,1.09568 -9.575041,1.1152 -12.832331,0.79816 -6.580601,-0.64052 -8.330997,-1.12408 -10.993685,-3.03703 -0.694142,-0.49868 -1.731046,-1.14596 -2.304248,-1.43839 -0.573201,-0.29242 -1.595905,-0.95434 -2.272677,-1.47093 l -1.230494,-0.93936 0.002,4.69462 c 10e-4,2.58204 0.110011,5.409 0.242021,6.28212 0.13202,0.87313 0.317891,2.56978 0.413061,3.77032 l 0.173051,2.18294 h -1.307924 -1.307925 l -0.18118,-2.31512 z m 23.929146,-10.12535 c 1.148834,-0.33508 5.650369,-0.78257 10.184743,-1.01244 3.335261,-0.16909 3.477831,-0.20091 4.700155,-1.049 l 1.260564,-0.87461 0.807543,0.57501 c 0.664982,0.47351 1.077723,0.55547 2.338137,0.4643 0.987563,-0.0714 2.084327,-0.38735 3.09129,-0.89042 1.433845,-0.71634 1.583775,-0.87551 1.844806,-1.9584 0.156271,-0.64829 0.602502,-1.52619 0.991633,-1.95089 0.663462,-0.72411 0.744603,-0.74707 1.303384,-0.36872 0.509262,0.34482 0.584912,0.60162 0.520422,1.76673 -0.072,1.30066 -0.0506,1.34996 0.465752,1.07362 0.29767,-0.1593 1.284124,-0.806 2.192127,-1.43711 0.908012,-0.6311 2.305767,-1.47489 3.106129,-1.87508 1.933357,-0.96671 5.556368,-4.64846 5.556038,-5.64612 -2e-4,-0.56425 -0.523211,-1.14518 -2.657268,-2.95149 -1.461375,-1.23694 -3.09838,-2.495 -3.637802,-2.79571 -1.136934,-0.63379 -8.848778,-2.77441 -9.995272,-2.77443 -3.18239,-5e-5 -13.199472,0.55721 -14.268896,0.7938 -0.727612,0.16097 -4.478084,0.70655 -8.334406,1.21238 -8.877239,1.16445 -10.972995,1.75041 -11.769518,3.29071 -0.237861,0.45999 -0.401351,1.47601 -0.401351,2.49432 0,1.43324 -0.105541,1.84088 -0.636422,2.45806 -0.624142,0.72562 -0.646892,0.73042 -1.179234,0.24864 -0.423671,-0.38341 -0.559842,-0.87654 -0.620362,-2.24648 l -0.0775,-1.75525 -1.032254,0.0629 c -1.121663,0.0683 -4.859965,1.79758 -6.070019,2.80785 l -0.752252,0.62805 1.205944,2.52953 c 1.300734,2.72833 1.785065,3.2272 4.531914,4.66791 0.873123,0.45795 2.236757,1.3072 3.03029,1.88722 1.663525,1.21593 4.230053,2.09367 6.19188,2.1176 0.748652,0.009 2.254167,0.17273 3.34558,0.36356 2.546818,0.4453 3.620012,0.47774 4.764255,0.14399 z M 46.58152,75.768075 c 1.310994,-0.406741 2.764289,-1.896956 3.684812,-3.778432 1.140474,-2.331037 1.144134,-3.003499 0.031,-5.689098 -0.931843,-2.248157 -1.053293,-2.407668 -2.611128,-3.429371 -0.898603,-0.589352 -3.479301,-1.972556 -5.734879,-3.0738 -5.471457,-2.671315 -12.70004,-5.055256 -12.70004,-4.188382 0,0.476756 1.530975,2.931268 3.618271,5.800938 2.061897,2.834769 2.172877,3.23553 1.151794,4.159593 -0.488282,0.441891 -0.555362,0.414861 -1.718616,-0.692712 -0.665782,-0.633902 -1.952136,-2.283638 -2.858579,-3.666092 l -1.648085,-2.513548 -1.190624,0.0895 c -0.899393,0.0676 -1.407484,0.294161 -2.077146,0.926043 -0.487592,0.460072 -1.350515,1.514165 -1.917607,2.342418 -0.567101,0.828252 -1.295994,1.691465 -1.619765,1.918236 -0.807692,0.565732 -2.141397,0.522381 -2.693378,-0.0876 -0.433682,-0.479211 -0.337521,-0.631182 2.326297,-3.676301 1.528275,-1.747036 3.497911,-3.809519 4.376974,-4.5833 0.879063,-0.773784 1.510425,-1.480637 1.403025,-1.570786 -0.357322,-0.299912 -2.280318,-0.740981 -5.166067,-1.184925 -2.601658,-0.400236 -2.910389,-0.402204 -3.490241,-0.02228 -0.349871,0.229242 -1.649235,0.593476 -2.887499,0.809409 -3.15278,0.5498 -3.553632,0.648096 -5.1243071,1.256568 -1.0904735,0.422445 -1.6725453,0.889985 -2.6903986,2.160997 -0.7143823,0.892059 -1.8443659,2.152724 -2.511088,2.801496 -1.1873738,1.155413 -1.2122139,1.213803 -1.2122139,2.850319 0,1.228784 0.2032607,2.176577 0.7684025,3.582951 0.4226113,1.051704 0.9075129,2.285158 1.0775534,2.741009 0.1700406,0.455851 0.627942,1.129974 1.0175533,1.498065 1.4612346,1.380524 6.3390104,2.795139 11.1594564,3.23639 1.091413,0.0999 3.413141,0.515242 5.159396,0.922963 3.02114,0.705412 5.774659,1.208664 7.805225,1.426545 0.509332,0.0546 4.140743,0.0683 8.069826,0.0304 4.757075,-0.0459 7.497354,-0.178661 8.202106,-0.397312 z M 22.019282,149.93461 c -0.097,-0.097 -0.176391,-0.58681 -0.176391,-1.08843 0,-0.50164 -0.197921,-2.1349 -0.439831,-3.62949 -0.372172,-2.29942 -0.387452,-2.90449 -0.0993,-3.93363 0.187291,-0.66891 0.506512,-1.35396 0.709383,-1.52233 0.28502,-0.23655 0.479451,-0.20605 0.855442,0.13422 0.598362,0.54151 1.057544,3.14422 1.276924,7.23784 l 0.159611,2.97821 h -1.054724 c -0.580091,0 -1.134083,-0.0794 -1.231093,-0.17639 z m 92.163488,0.0872 c 0,-0.0491 0.44648,-0.56121 0.99218,-1.13808 0.54572,-0.57689 1.16566,-1.39994 1.37767,-1.82902 0.66065,-1.3371 1.09082,-1.67706 2.35699,-1.86267 1.05601,-0.15479 1.50882,-0.4486 3.26072,-2.11569 1.11893,-1.06477 2.64247,-2.24406 3.38563,-2.62065 0.74317,-0.37658 2.72376,-1.7054 4.40131,-2.9529 3.11461,-2.31616 4.70929,-4.02782 6.24804,-6.70641 0.45979,-0.80036 1.16358,-1.9111 1.56397,-2.46829 0.8589,-1.19526 1.39592,-2.68032 1.17625,-3.25277 -0.1364,-0.35545 -0.26633,-0.34104 -1.01631,0.11275 -2.10522,1.27378 -4.65375,2.54044 -9.42622,4.68501 l -5.12671,2.30372 -4.66291,0.0614 c -6.399,0.0843 -7.60605,-0.11948 -12.83535,-2.16718 l -2.35159,-0.92085 -0.66917,0.85505 c -0.36806,0.47028 -1.06219,1.01926 -1.54253,1.21996 -0.49069,0.20502 -1.78362,0.3649 -2.950894,0.3649 -2.001147,0 -2.118287,-0.0349 -3.18537,-0.94825 -0.609302,-0.52154 -1.413585,-1.46999 -1.787276,-2.10765 -0.667232,-1.13855 -0.678302,-1.24221 -0.615552,-5.76651 l 0.0639,-4.60711 -0.975503,-1.19049 c -0.536532,-0.65475 -1.283694,-1.94892 -1.660365,-2.87592 -0.930353,-2.2896 -1.750186,-3.87833 -3.532692,-6.84581 -2.163986,-3.60258 -3.496871,-6.24944 -5.196266,-10.318777 -1.946426,-4.660885 -2.188227,-5.328237 -2.749449,-7.588214 -0.259451,-1.044803 -0.544822,-2.017917 -0.634162,-2.162457 -0.0893,-0.14455 -0.548012,-0.341691 -1.019293,-0.438091 -0.471272,-0.0964 -1.303354,-0.303011 -1.849056,-0.459122 l -0.992193,-0.283831 v -2.987369 -2.98738 l 0.940663,-0.717472 c 1.147733,-0.875423 3.416361,-1.520155 4.086663,-1.161424 0.572062,0.306161 2.301887,2.868889 2.692158,3.988433 0.263301,0.755292 0.210591,0.891583 -0.709132,1.833466 l -0.993583,1.017513 0.565832,2.097017 c 1.603765,5.943619 4.836455,13.310238 8.410897,19.166648 0.824552,1.35095 2.050636,3.6469 2.724648,5.10212 1.702626,3.67606 1.960407,4.11806 2.96299,5.08035 0.837342,0.80369 0.941293,0.83378 2.032356,0.58827 1.368185,-0.30785 3.818359,0.0676 5.451719,0.83536 0.59818,0.28118 1.54102,0.88498 2.09522,1.3418 0.92433,0.76192 0.99802,0.92032 0.89146,1.91637 -0.0639,0.59719 -0.39967,1.82274 -0.74617,2.72346 l -0.63,1.63766 0.60248,0.6413 c 0.89133,0.94879 3.66153,2.20781 6.45146,2.93214 2.93056,0.76084 8.09301,1.11126 10.26632,0.69688 1.36127,-0.25957 7.5796,-2.88731 11.77399,-4.97549 2.02021,-1.00575 7.81916,-4.7009 8.13192,-5.18173 0.10691,-0.16437 0.19621,-1.19697 0.19844,-2.29466 0.003,-1.30471 0.2252,-2.77065 0.64269,-4.23336 0.77116,-2.70187 1.09134,-4.35046 1.48795,-7.6615 0.19242,-1.60637 0.62693,-3.37484 1.20392,-4.89996 0.49656,-1.31252 0.90283,-2.526953 0.90283,-2.698734 0,-0.171781 0.41642,-1.002903 0.92538,-1.846936 0.96945,-1.607745 1.16832,-2.460658 0.5737,-2.460658 -0.55123,0 -3.05821,1.850346 -5.9082,4.360724 -1.65878,1.461115 -3.27389,2.614144 -4.45445,3.180044 -2.38974,1.14555 -8.40278,2.98156 -10.96604,3.34838 -2.5368,0.36305 -11.29821,0.11159 -14.17629,-0.40685 -1.16793,-0.21038 -2.89434,-0.63972 -3.83647,-0.95409 -2.53453,-0.84571 -6.3802,-2.84658 -8.2607,-4.297961 -0.909903,-0.702272 -1.914466,-1.460575 -2.232377,-1.685135 -0.333312,-0.235441 -1.433095,-0.472952 -2.597779,-0.561042 l -2.019766,-0.152751 -0.907963,-1.189124 c -0.867093,-1.135593 -0.907963,-1.288744 -0.907963,-3.40233 v -2.213218 l 1.484955,-1.615265 c 1.607125,-1.748145 1.555885,-1.509525 0.930683,-4.333284 -0.128881,-0.582081 -0.495922,-2.287207 -0.815653,-3.789172 -0.319731,-1.501955 -0.753192,-3.34743 -0.963243,-4.101053 -0.210051,-0.753622 -0.677012,-2.739449 -1.037693,-4.412934 -0.360681,-1.673495 -0.794963,-3.578501 -0.965053,-4.233353 -0.295801,-1.138794 -1.810046,-4.723256 -2.347228,-5.556268 -0.14076,-0.218281 -0.833753,-1.593695 -1.539985,-3.05647 -1.201984,-2.489609 -1.902116,-4.338947 -2.259897,-5.969325 -0.0834,-0.380266 -0.659572,-1.451832 -1.280254,-2.381258 -0.929183,-1.391347 -1.128534,-1.90988 -1.128534,-2.935371 0,-1.11831 0.120461,-1.36825 1.179574,-2.447403 0.648762,-0.661043 1.275344,-1.201895 1.392404,-1.201895 0.117051,0 0.494892,0.62508 0.839633,1.389067 0.346421,0.767712 1.232584,1.976383 1.981046,2.702042 1.147224,1.11227 1.354235,1.462169 1.354235,2.288976 0,0.834969 -0.133811,1.054955 -0.926043,1.522382 -0.509322,0.30051 -0.926043,0.693339 -0.926043,0.872954 0,0.179616 0.969543,2.296998 2.154547,4.705293 3.841652,7.807458 3.435541,6.601944 5.931699,17.60793 0.660082,2.910419 1.305044,5.767928 1.433244,6.35002 0.128201,0.582082 0.353761,1.594115 0.501262,2.248957 0.14749,0.654852 0.335401,1.512915 0.417571,1.906816 0.111911,0.536492 0.454882,0.851323 1.366925,1.254764 0.905123,0.400382 1.175843,0.647232 1.055033,0.962043 -0.505882,1.318315 -0.439561,1.569785 0.756202,2.86755 1.378531,1.496124 1.471901,2.077776 0.671621,4.183953 l -0.52861,1.391194 0.59475,0.454192 c 1.33217,1.017323 4.9863,2.922669 7.47395,3.897069 3.77826,1.47995 6.68306,1.93043 12.56774,1.94902 4.50384,0.0142 5.09558,-0.0403 7.40836,-0.68217 7.25597,-2.013889 9.84133,-3.342163 14.09362,-7.240846 0.83923,-0.769442 2.65494,-2.186177 4.03491,-3.1483 2.39572,-1.670305 2.50908,-1.793236 2.51004,-2.721769 5.3e-4,-0.534851 0.1636,-1.984486 0.36232,-3.22142 0.26234,-1.632935 0.32449,-3.860992 0.2269,-8.134006 -0.092,-4.026973 -0.23229,-5.966279 -0.44445,-6.14235 -0.17052,-0.14153 -1.37825,-0.430091 -2.68385,-0.641252 -1.30559,-0.21116 -3.08434,-0.562571 -3.95277,-0.780902 -0.86843,-0.218331 -2.35288,-0.476422 -3.29877,-0.573532 -0.94588,-0.0971 -2.47648,-0.404701 -3.40132,-0.683542 -1.2746,-0.384281 -2.4918,-0.506972 -5.02981,-0.506972 -3.24394,0 -3.41419,-0.0288 -5.46226,-0.922813 -1.68638,-0.736172 -2.46179,-0.924513 -3.83375,-0.931223 -1.52983,-0.007 -1.90976,-0.1241 -3.43959,-1.055733 -2.05906,-1.253924 -2.33294,-1.380685 -4.33041,-2.004277 -1.6503,-0.515211 -3.28501,-1.635335 -3.76765,-2.581628 -0.16105,-0.315781 -0.43658,-1.348054 -0.61228,-2.293937 -0.1757,-0.945893 -0.60819,-2.56954 -0.96111,-3.60811 -0.58081,-1.709245 -0.63968,-2.298848 -0.62086,-6.217729 0.0151,-3.134888 0.15729,-4.986432 0.51548,-6.710677 1.47522,-7.101317 2.20213,-10.240241 2.75728,-11.906287 0.33943,-1.018649 0.75842,-2.789821 0.93108,-3.935939 0.4429,-2.939947 0.98387,-4.869385 1.61292,-5.752813 0.72779,-1.022082 2.29792,-1.882296 5.00471,-2.741866 3.44556,-1.094174 6.97375,-3.032631 9.39274,-5.160572 1.16418,-1.024094 2.29527,-1.9145646 2.51355,-1.9788228 0.21828,-0.06426 1.19175,-0.2972229 2.16325,-0.5176996 1.04612,-0.2374108 2.24614,-0.7390394 2.94299,-1.23023 0.80738,-0.5690978 2.09977,-1.0656554 4.11833,-1.582323 2.33225,-0.5969609 3.46056,-1.0625894 5.44613,-2.2474822 2.21865,-1.3239813 2.77401,-1.5347969 4.86685,-1.8474349 1.29934,-0.1941007 3.53691,-0.4378414 4.97238,-0.5416458 1.43547,-0.1038043 3.07188,-0.3502791 3.63645,-0.5477217 0.56458,-0.1974427 2.66205,-0.55806181 4.66106,-0.80137558 L 166.23522,0 l 3.0119,0.70198325 c 1.65653,0.38609125 4.50017,0.93713295 6.31919,1.22453695 4.25339,0.6720341 7.10773,1.568152 10.66577,3.3485057 1.57329,0.7872385 3.00856,1.4313416 3.18948,1.4313416 0.18093,0 1.08784,0.5343747 2.01535,1.1874988 0.92752,0.6531241 2.07763,1.260894 2.5558,1.3505983 0.47816,0.0897 0.98228,0.2994729 1.12025,0.4661525 0.13797,0.1666785 0.45041,1.4936819 0.69432,2.9488949 0.2439,1.455212 0.67367,3.479282 0.95507,4.497931 0.28138,1.018648 0.74686,2.733459 1.0344,3.810689 1.46978,5.506386 1.27273,11.709713 -0.52356,16.481448 -0.31194,0.828664 -1.20839,2.470177 -1.99209,3.647807 -0.9304,1.398081 -1.53915,2.651654 -1.75411,3.61219 -0.18107,0.809075 -0.69464,2.039415 -1.14128,2.734091 -0.44663,0.694676 -1.28831,2.009223 -1.87039,2.921218 -0.5821,0.911995 -1.56258,2.266872 -2.17886,3.010841 -0.61628,0.743968 -1.78671,2.161973 -2.60095,3.151121 -0.81423,0.989148 -2.27454,2.377283 -3.24512,3.084746 -0.97058,0.707462 -2.41954,2.082496 -3.2199,3.05563 -0.80037,0.973133 -1.87194,1.981326 -2.38126,2.240417 -0.50933,0.259101 -1.81581,0.671842 -2.90331,0.917213 -1.08749,0.24537 -2.1354,0.577381 -2.32869,0.737792 -0.2553,0.211881 -0.30583,0.695902 -0.18471,1.769356 0.19032,1.686695 0.46747,2.747558 1.23089,4.711445 0.43072,1.108033 0.90002,1.674895 2.36961,2.862269 1.00788,0.814333 2.11389,1.918996 2.45781,2.454808 0.40808,0.635742 0.68598,1.571685 0.79992,2.693998 0.096,0.945883 0.30298,2.196047 0.45989,2.778129 0.15691,0.582092 0.30345,3.201471 0.32563,5.820859 0.0222,2.619378 0.2101,6.012669 0.4176,7.540644 0.20751,1.527975 0.35211,3.432976 0.32134,4.233336 -0.054,1.40362 -0.0461,4.1353 0.0191,6.61462 0.0553,2.10349 -0.86207,8.53669 -1.50916,10.58336 -0.36432,1.15234 -0.68858,2.98283 -0.77333,4.36564 -0.0803,1.30969 -0.3218,2.97657 -0.53674,3.70418 -0.21495,0.72761 -0.51475,2.69214 -0.66621,4.36564 -0.65296,7.21418 -0.83638,8.96644 -1.12167,10.71565 -0.33109,2.03008 -1.07944,5.11559 -1.71657,7.07764 -0.40531,1.24817 -0.41611,1.25677 -1.57747,1.25677 -0.64316,0 -1.16937,-0.11499 -1.16937,-0.25553 0,-0.14054 0.35553,-1.72601 0.79008,-3.52325 1.09406,-4.52504 1.52251,-6.96806 1.84297,-10.50877 0.67687,-7.47854 0.85083,-8.95109 1.21902,-10.31878 0.21547,-0.80037 0.45875,-2.46725 0.54062,-3.70418 0.0819,-1.23693 0.42682,-3.20147 0.76654,-4.36563 1.02981,-3.52896 1.26078,-6.66264 1.08233,-14.68443 -0.28729,-12.91461 -0.67054,-19.23409 -1.35975,-22.42127 -0.0705,-0.326191 -1.18553,-1.492295 -2.47776,-2.591348 -1.29222,-1.099044 -2.47172,-2.320448 -2.6211,-2.714219 -1.85303,-4.884846 -1.95219,-5.235137 -1.83301,-6.475481 0.067,-0.697292 0.0181,-1.331884 -0.10862,-1.410214 -0.12674,-0.0783 -1.5729,0.15873 -3.21368,0.526802 -1.64078,0.368071 -4.46676,0.850842 -6.27994,1.072833 -3.80066,0.465301 -7.93139,1.765826 -7.92046,2.493688 0.004,0.236811 0.1261,0.949383 0.27231,1.583485 0.18718,0.811823 0.17373,1.621065 -0.0455,2.735299 -0.24412,1.240844 -0.23774,2.055326 0.0296,3.773622 0.27164,1.746225 0.2758,2.614678 0.0205,4.276184 -0.59907,3.898052 -1.31042,8.958908 -1.49429,10.631094 -0.13022,1.184343 -0.40138,1.988676 -0.93655,2.778138 -0.41429,0.611142 -0.75542,1.205884 -0.75807,1.321645 -0.003,0.11577 -0.46735,1.484994 -1.03267,3.042712 -0.72593,2.00033 -1.12067,3.64656 -1.34385,5.60455 -0.1738,1.52477 -0.4777,3.42977 -0.67534,4.23335 -0.19763,0.80357 -0.61965,2.50797 -0.9378,3.78756 -0.31815,1.27958 -0.52383,2.38115 -0.45705,2.44793 0.2487,0.2487 5.31654,-5.17688 8.53742,-9.14009 1.83311,-2.25558 4.1916,-5.44074 5.24111,-7.07814 1.18935,-1.855579 2.0552,-2.951083 2.29842,-2.908072 0.61752,0.10918 1.09672,1.294354 0.9667,2.390852 -0.0862,0.72676 -0.64994,1.7121 -2.04366,3.57188 -4.51527,6.02525 -8.17729,10.28937 -13.22604,15.40059 -1.58159,1.60119 -3.03303,4.16145 -3.97485,7.01149 -0.33663,1.01865 -0.92885,2.2688 -1.31605,2.77813 -0.38722,0.50933 -1.19508,1.73086 -1.79526,2.71452 -1.83999,3.01561 -4.16924,5.64586 -5.822,6.57433 -0.81927,0.46025 -2.03905,1.2946 -2.71062,1.85413 -0.67157,0.55953 -2.04079,1.51154 -3.04272,2.11558 -1.00192,0.60403 -2.48295,1.72367 -3.29116,2.48808 -0.80821,0.76442 -2.06593,1.69209 -2.79492,2.06149 -0.72899,0.36941 -1.76406,1.15716 -2.30015,1.75055 -0.95007,1.05159 -1.01827,1.07889 -2.69521,1.07889 -0.94628,0 -1.72049,-0.0402 -1.72049,-0.0892 z M 100.304,128.55444 c 0.6142,-0.35994 1.18724,-0.8382 1.27342,-1.06279 0.0862,-0.22458 -0.078,-0.79329 -0.36488,-1.26379 -0.28687,-0.47049 -0.52203,-1.07237 -0.52257,-1.3375 -5.3e-4,-0.26513 -0.31486,-1.01762 -0.698479,-1.67223 l -0.697482,-1.19016 0.565192,-0.76446 c 0.821879,-1.11166 0.722419,-1.50709 -0.426992,-1.69759 -0.920973,-0.15264 -3.497081,0.18241 -4.055373,0.52746 -0.348361,0.21529 -0.302671,5.42207 0.057,6.49634 0.165621,0.49465 0.588402,1.28633 0.939513,1.75927 0.539852,0.72718 0.806263,0.85989 1.726156,0.85989 0.679802,0 1.506595,-0.24544 2.204495,-0.65444 z m 2.76624,-7.28308 c 0,-0.29104 -0.0498,-0.52916 -0.11065,-0.52916 -0.0609,0 -0.299,-0.0723 -0.52918,-0.1606 -0.29302,-0.11244 -0.41852,-0.007 -0.41852,0.35277 0,0.60151 0.21558,0.86616 0.70556,0.86616 0.19404,0 0.35279,-0.23812 0.35279,-0.52917 z M 97.786154,93.207091 c 0.329191,-0.794722 0.303141,-0.845702 -1.216394,-2.381257 -0.854023,-0.863033 -1.696685,-1.569155 -1.872586,-1.569155 -0.17589,0 -0.566572,0.313721 -0.868183,0.697142 -0.398551,0.506691 -0.548371,1.081363 -0.548371,2.103527 0,1.718095 0.292761,1.942616 2.547598,1.953806 1.563395,0.008 1.633615,-0.0211 1.957936,-0.804063 z M 78.397762,82.457537 c 0.327421,-0.078 0.595312,-0.297261 0.595312,-0.487292 0,-0.398691 -1.709006,-1.035373 -2.111497,-0.786622 -0.14837,0.0917 -0.269761,0.530771 -0.269761,0.975723 0,0.717232 0.0675,0.788062 0.595322,0.624482 0.327421,-0.10148 0.863203,-0.248311 1.190624,-0.326291 z M 153.48733,67.202738 c 1.15657,-0.355861 3.05537,-0.726002 4.21954,-0.822533 1.16416,-0.0965 3.75794,-0.525241 5.76395,-0.952703 2.00601,-0.427451 4.0896,-0.782412 4.63022,-0.788802 0.54063,-0.006 1.4592,-0.196811 2.04128,-0.423172 0.58209,-0.22635 1.81498,-0.581711 2.73975,-0.789702 0.92478,-0.207981 1.99635,-0.543992 2.38126,-0.746702 0.78642,-0.414152 2.73545,-2.404728 3.85613,-3.938353 0.42783,-0.585482 1.21787,-1.218931 1.86761,-1.49744 0.75738,-0.324653 1.51838,-0.988667 2.32418,-2.027982 0.65895,-0.849903 1.63422,-1.962001 2.16726,-2.471325 0.53303,-0.509325 1.44988,-1.795863 2.03743,-2.858972 0.58755,-1.06311 1.53189,-2.468605 2.09855,-3.123324 0.56665,-0.654718 1.10181,-1.511315 1.18922,-1.903545 0.64968,-2.915279 1.04147,-3.853513 2.10148,-5.032495 1.19002,-1.323587 2.22544,-3.765768 2.93622,-6.925477 0.6622,-2.943764 0.12995,-10.878015 -0.82779,-12.339706 -0.22,-0.335771 -0.74881,-2.369917 -1.17513,-4.520323 -0.56891,-2.869581 -0.90292,-3.998836 -1.25541,-4.244368 -0.26415,-0.183998 -1.07166,-0.768483 -1.79446,-1.298857 -0.72282,-0.5303751 -2.41291,-1.3469077 -3.75578,-1.8145182 -1.34286,-0.4676095 -2.8946,-1.1992859 -3.44832,-1.6259472 -0.73547,-0.5667158 -2.00486,-1.0386983 -4.71092,-1.7515986 -2.0373,-0.5367187 -4.65669,-1.0966075 -5.82085,-1.244199 -1.16417,-0.1475915 -3.29075,-0.5282927 -4.72574,-0.8460047 -2.38186,-0.5273567 -2.84265,-0.5514088 -5.29168,-0.2762239 -1.47544,0.1657885 -3.20361,0.4860766 -3.84037,0.7117523 -0.63677,0.2256747 -1.56938,0.4103183 -2.07247,0.4103183 -0.5031,0 -2.66103,0.1964916 -4.7954,0.4366474 -3.07929,0.3464761 -3.94897,0.5332867 -4.2114,0.9046159 -0.18189,0.2573828 -0.85156,0.5790528 -1.48814,0.7148223 -0.63659,0.1357704 -1.6295,0.626224 -2.20648,1.0898995 -0.8063,0.647963 -1.75387,1.0173442 -4.0949,1.5962861 -3.28294,0.8118726 -3.95648,1.0833744 -4.97667,2.0060658 -0.39711,0.359162 -1.19015,0.673519 -1.98438,0.786603 -1.9404,0.276279 -2.97384,0.789852 -4.50685,2.239712 -2.44775,2.314976 -5.80196,4.191272 -9.95373,5.567977 -1.39639,0.463031 -2.88301,1.051153 -3.30362,1.30694 -0.66604,0.405044 -0.83867,0.786315 -1.3375,2.954138 -0.31502,1.368989 -0.63816,3.14069 -0.7181,3.937111 -0.0799,0.796425 -0.37573,1.927522 -0.65732,2.51355 -0.28159,0.58603 -0.6348,1.660824 -0.78493,2.388431 -0.15012,0.727606 -0.51253,2.335849 -0.80537,3.573873 -0.80132,3.38777 -1.31284,6.723055 -1.46052,9.523043 -0.0729,1.382452 -0.20956,3.116373 -0.30366,3.853158 -0.14009,1.096924 -0.0245,1.767983 0.63826,3.704178 0.44514,1.300513 0.94017,3.198011 1.10008,4.21666 0.32217,2.052366 0.82922,2.782679 2.01616,2.903879 0.80049,0.0817 2.52075,0.684882 2.74684,0.963073 0.0728,0.0895 0.42995,0.247831 0.79375,0.351771 1.21022,0.345781 2.32199,0.933753 2.46366,1.302924 0.0986,0.257021 0.82998,0.403422 2.47619,0.495682 1.82681,0.10239 2.76241,0.311591 4.29084,0.959423 1.85053,0.784352 2.13633,0.828483 5.36618,0.828483 2.72926,0 3.73067,0.1075 5.0072,0.537531 0.87761,0.295651 2.71558,0.643492 4.08439,0.772993 1.3688,0.12951 2.6413,0.330931 2.82778,0.447621 0.65717,0.411202 3.2766,0.810863 5.64455,0.861203 1.89447,0.0403 2.83459,-0.0843 4.49793,-0.596092 z m -8.34821,-3.881062 c -1.25,-0.337831 -3.11948,-0.576652 -5.05155,-0.645332 -2.4094,-0.0857 -3.52771,-0.261251 -5.21467,-0.818793 -2.8785,-0.951363 -4.01164,-1.953446 -5.3213,-4.705893 -1.36034,-2.858956 -1.7264,-4.542469 -1.4986,-6.892058 0.85415,-8.809671 0.83221,-8.295768 0.53975,-12.642716 -0.10449,-1.553189 -0.11498,-3.122834 -0.0233,-3.488106 0.21475,-0.855647 1.10645,-1.152189 1.74014,-0.578706 0.36094,0.326647 0.51917,0.998491 0.64435,2.735835 0.0913,1.266575 0.23872,3.247231 0.32771,4.401458 0.0936,1.214579 0.0377,2.663482 -0.13273,3.439594 -0.16199,0.73755 -0.32494,3.126943 -0.36209,5.309763 l -0.0676,3.968762 0.90509,1.822303 c 1.27383,2.564731 2.43522,3.693215 4.37684,4.252836 2.43397,0.701523 4.63823,0.991494 6.13732,0.807353 1.07597,-0.132161 1.85116,-0.0161 3.66052,0.548022 2.12526,0.662622 2.42626,0.693822 4.05894,0.420761 0.96989,-0.16222 2.34794,-0.358321 3.06233,-0.435781 1.36657,-0.148191 2.21253,-0.664923 4.38968,-2.681339 0.65484,-0.606496 1.75943,-1.368887 2.45464,-1.694201 0.6952,-0.325314 1.6477,-1.042552 2.11666,-1.59386 0.46898,-0.551309 1.31365,-1.903931 1.87706,-3.005825 0.86751,-1.696618 1.25246,-2.152038 2.51355,-2.973675 3.16414,-2.061521 3.40853,-2.69166 1.29072,-3.327942 -0.76398,-0.229535 -3.47266,-0.91399 -6.01929,-1.52101 -2.54662,-0.607022 -5.22553,-1.348527 -5.95314,-1.64779 -1.52679,-0.627964 -3.15122,-1.174051 -4.10106,-1.378659 -0.3638,-0.07837 -1.37583,-0.619074 -2.24896,-1.201572 -0.87313,-0.582496 -1.91252,-1.062448 -2.30975,-1.066562 -1.14727,-0.01188 -2.81035,-0.796656 -3.37817,-1.594086 -0.42645,-0.598881 -0.79853,-0.767255 -2.03768,-0.922076 -2.47333,-0.309021 -4.84763,-1.16462 -6.95882,-2.507665 -1.09142,-0.694303 -2.60744,-1.577054 -3.36895,-1.961664 -0.95437,-0.482009 -1.43595,-0.903954 -1.5499,-1.357979 -0.26415,-1.052465 0.0359,-1.453624 1.08721,-1.453624 1.09438,0 1.9251,0.391031 4.4931,2.114966 2.0753,1.393176 5.39811,2.600331 7.40835,2.691398 1.14841,0.05203 1.48,0.206283 2.51355,1.169304 0.94318,0.878813 1.46485,1.148292 2.51007,1.296639 1.44626,0.205267 2.52941,0.683439 3.63201,1.603404 0.94204,0.786007 5.93609,2.421313 12.51111,4.096773 2.91043,0.74164 5.80556,1.593477 6.43362,1.892971 0.67409,0.32144 1.42236,0.968266 1.82639,1.578794 0.62607,0.946066 0.65279,1.093882 0.31327,1.733416 -0.20414,0.384536 -1.44274,1.555665 -2.75243,2.602511 -1.3097,1.046845 -2.56363,2.127624 -2.78652,2.401731 -0.2229,0.274107 -0.68537,1.034159 -1.02772,1.689004 -0.72628,1.389203 -3.18776,4.016588 -4.52016,4.824791 -0.50933,0.308941 -1.4104,0.999113 -2.00238,1.533715 -0.592,0.534601 -1.78262,1.425364 -2.64585,1.979466 -1.66337,1.067713 -2.71314,1.292904 -7.39035,1.585315 -1.61889,0.10121 -2.58334,0.006 -4.10106,-0.403971 z M 184.0849,31.763132 c -0.46512,-0.479872 -0.84566,-1.122383 -0.84566,-1.427806 0,-0.30542 0.40467,-0.910622 0.89929,-1.344894 0.66423,-0.583202 1.08073,-0.754901 1.59346,-0.656885 0.79686,0.152328 1.7406,1.222558 1.7406,1.973898 0,0.797743 -0.47484,1.492744 -1.31763,1.928567 -0.42502,0.219788 -0.87439,0.399614 -0.99859,0.399614 -0.1242,0 -0.60636,-0.392621 -1.07147,-0.872494 z M 135.32915,17.574681 c -0.42537,-0.425369 -0.7734,-1.011549 -0.7734,-1.30262 0,-0.291072 0.30824,-0.895545 0.68498,-1.343274 0.8712,-1.035363 1.89032,-1.077014 2.85083,-0.116513 0.9605,0.960501 0.91884,1.979627 -0.11651,2.850827 -0.44773,0.376739 -1.05221,0.684981 -1.34328,0.684981 -0.29107,0 -0.87725,-0.34803 -1.30262,-0.773401 z"
       id="path17211"
       inkstitch:angle="30" /></g></svg>
